<svg width="31" height="31" viewBox="0 0 31 31" fill="none" xmlns="http://www.w3.org/2000/svg">
<path d="M12.5837 22.0625L21.3337 15.5L12.5837 8.93749V22.0625ZM15.5003 0.916656C7.45033 0.916656 0.916992 7.44999 0.916992 15.5C0.916992 23.55 7.45033 30.0833 15.5003 30.0833C23.5503 30.0833 30.0837 23.55 30.0837 15.5C30.0837 7.44999 23.5503 0.916656 15.5003 0.916656ZM15.5003 27.1667C9.06908 27.1667 3.83366 21.9312 3.83366 15.5C3.83366 9.06874 9.06908 3.83332 15.5003 3.83332C21.9316 3.83332 27.167 9.06874 27.167 15.5C27.167 21.9312 21.9316 27.1667 15.5003 27.1667Z" fill="#B11226"/>
</svg>
